<?xml version="1.0" encoding="UTF-8" standalone="no"?>
<!-- Created with Inkscape (http://www.inkscape.org/) -->

<svg
   xmlns:dc="http://purl.org/dc/elements/1.1/"
   xmlns:cc="http://creativecommons.org/ns#"
   xmlns:rdf="http://www.w3.org/1999/02/22-rdf-syntax-ns#"
   xmlns:svg="http://www.w3.org/2000/svg"
   xmlns="http://www.w3.org/2000/svg"
   xmlns:sodipodi="http://sodipodi.sourceforge.net/DTD/sodipodi-0.dtd"
   xmlns:inkscape="http://www.inkscape.org/namespaces/inkscape"
   version="1.1"
   id="svg4504"
   xml:space="preserve"
   width="262.92484"
   height="340.66666"
   viewBox="0 0 262.92484 340.66666"
   sodipodi:docname="pf-offset.svg"
   inkscape:version="0.92.1 r15371"><metadata
     id="metadata4510"><rdf:RDF><cc:Work
         rdf:about=""><dc:format>image/svg+xml</dc:format><dc:type
           rdf:resource="http://purl.org/dc/dcmitype/StillImage" /><dc:title></dc:title></cc:Work></rdf:RDF></metadata><defs
     id="defs4508"><clipPath
       clipPathUnits="userSpaceOnUse"
       id="clipPath4560"><path
         d="M 0,255.895 H 920 V 0 H 0 Z"
         id="path4558"
         inkscape:connector-curvature="0" /></clipPath><clipPath
       clipPathUnits="userSpaceOnUse"
       id="clipPath4632"><path
         d="M 0,255.895 H 920 V 0 H 0 Z"
         id="path4630"
         inkscape:connector-curvature="0" /></clipPath></defs><sodipodi:namedview
     pagecolor="#ffffff"
     bordercolor="#666666"
     borderopacity="1"
     objecttolerance="10"
     gridtolerance="10"
     guidetolerance="10"
     inkscape:pageopacity="0"
     inkscape:pageshadow="2"
     inkscape:window-width="1598"
     inkscape:window-height="881"
     id="namedview4506"
     showgrid="false"
     inkscape:zoom="1.4142136"
     inkscape:cx="77.502938"
     inkscape:cy="127.13643"
     inkscape:window-x="0"
     inkscape:window-y="0"
     inkscape:window-maximized="0"
     inkscape:current-layer="layer2"
     fit-margin-top="10"
     fit-margin-left="10"
     fit-margin-right="10"
     fit-margin-bottom="10" /><g
     inkscape:groupmode="layer"
     id="layer1"
     inkscape:label="P"
     style="display:inline"
     transform="translate(-31.457162,-37.510538)"><g
       id="g4642"
       transform="matrix(1.3333333,0,0,-1.3333333,55.504532,227.17773)"><path
         d="M 0,0 V 124.25 H 139.657 V 46.996 H 63.463 V 0 Z"
         style="fill:#f42f2f;fill-opacity:1;fill-rule:nonzero;stroke:none"
         id="path4644"
         inkscape:connector-curvature="0" /></g><path
       d="M 55.503999,164.51067 H 140.12133 V 61.510669 H 55.503999 Z"
       style="fill:#bc0d0d;fill-opacity:1;fill-rule:nonzero;stroke:none;stroke-width:1.33333325"
       id="path4646"
       inkscape:connector-curvature="0" /><path
       d="m 140,113.60133 h 56.66666 v -4.048 H 140 Z"
       style="fill:#000000;fill-opacity:1;fill-rule:nonzero;stroke:none;stroke-width:1.33333325"
       id="path4648"
       inkscape:connector-curvature="0" /><g
       transform="matrix(1.3333333,0,0,-1.3333333,1182.9318,237.1772)"
       id="g4917"><path
         inkscape:connector-curvature="0"
         id="path4915"
         style="fill:#000000;fill-opacity:1;fill-rule:nonzero;stroke:none"
         d="m -698.413,46.996 h -76.194 V 0 h -78.464 v 139.25 h 154.658 z m 3.035,95.254 H -856.106 V -3 h 84.535 v 46.96 h 76.193 z"
         sodipodi:nodetypes="cccccccccccccc" /></g></g><g
     inkscape:groupmode="layer"
     id="layer2"
     inkscape:label="F"
     style="display:inline"
     transform="translate(-31.457162,-37.510538)"><g
       id="g4639"
       transform="translate(-101.75,127)"><g
         transform="matrix(1.3333333,0,0,-1.3333333,846.54664,237.1772)"
         id="g4518"><path
           sodipodi:nodetypes="cccccccccccccccccccccccccc"
           inkscape:connector-curvature="0"
           id="path4520"
           style="fill:#000000;fill-opacity:1;fill-rule:nonzero;stroke:none"
           d="m -348.347,95.717 h -48.519 v -3.035 h 48.519 V 46.389 h -48.42 V 0 h -15.35 -0.797 -30.215 v 139.25 h 32.146 0.797 61.839 z m 3.036,46.533 h -64.937 -0.775 -35.141 V -3 h 33.293 0.79 18.2 v 46.353 h 48.57 z" /></g><g
         transform="matrix(1.3333333,0,0,-1.3333333,372.0849,99.554006)"
         id="g4592"><path
           inkscape:connector-curvature="0"
           id="path4594"
           style="fill:#37d381;fill-opacity:1;fill-rule:nonzero;stroke:none"
           d="M 0,0 V 28.532 H -79.782 V -18.036 H -48.52 V 0 Z" /></g><g
         transform="matrix(1.3333333,0,0,-1.3333333,265.70864,61.511073)"
         id="g4596"><path
           inkscape:connector-curvature="0"
           id="path4598"
           style="fill:#26bc71;fill-opacity:1;fill-rule:nonzero;stroke:none"
           d="m 0,0 v -124.25 h 31.361 v 46.389 l -0.098,31.293 V 0 Z" /></g><g
         transform="matrix(1.3333333,0,0,-1.3333333,372.0849,165.32613)"
         id="g4600"><path
           inkscape:connector-curvature="0"
           id="path4602"
           style="fill:#26bc71;fill-opacity:1;fill-rule:nonzero;stroke:none"
           d="M 0,0 V 31.293 H -48.52 L -48.421,0 Z" /></g><g
         transform="matrix(1.3333333,0,0,-1.3333333,265.70864,165.32613)"
         id="g4604"><path
           inkscape:connector-curvature="0"
           id="path4606"
           style="fill:#15a05d;fill-opacity:1;fill-rule:nonzero;stroke:none"
           d="M 0,0 H 31.361 L 31.263,31.293 H 0 Z" /></g></g></g></svg>